<svg xmlns="http://www.w3.org/2000/svg" xmlns:xlink="http://www.w3.org/1999/xlink"><g transform="translate(0,0)"><svg version="1.1" style="position: absolute; width: 1120px; height: 500px; left: 0.5px;" xmlns="http://www.w3.org/2000/svg" xmlns:xlink="http://www.w3.org/1999/xlink"><desc>JavaScript chart by amCharts 3.11.2</desc><g><path cs="100,100" d="M0.5,0.5 L1119.5,0.5 L1119.5,499.5 L0.5,499.5 Z" fill="#FFFFFF" stroke="#000000" fill-opacity="0" stroke-width="1" stroke-opacity="0"/></g><g><g visibility="visible"><g><path cs="100,100" d="M560.5,250.5 L555.5,250.5" fill="none" stroke-width="1" stroke-opacity="0.15" stroke="#000000"/><path cs="100,100" d="M0.5,0.5 L0.5,0.5 L0.5,0.5 L0.5,0.5 L0.5,0.5 L0.5,0.5 L0.5,0.5" fill="none" stroke-width="1" stroke-opacity="0.15" stroke="#000000" transform="translate(560,250)"/></g><g><path cs="100,100" d="M560.5,206.5 L555.5,206.5" fill="none" stroke-width="1" stroke-opacity="0.15" stroke="#000000"/><path cs="100,100" d="M0.5,-43.5 L38.5,-21.5 L38.5,22.5 L0.5,44.5 L-37.5,22.5 L-37.5,-21.5 L0.5,-43.5" fill="none" stroke-width="1" stroke-opacity="0.15" stroke="#000000" transform="translate(560,250)"/></g><g><path cs="100,100" d="M560.5,163.5 L555.5,163.5" fill="none" stroke-width="1" stroke-opacity="0.15" stroke="#000000"/><path cs="100,100" d="M0.5,-86.5 L75.5,-42.5 L75.5,44.5 L0.5,87.5 L-74.5,44.5 L-74.5,-42.5 L0.5,-86.5" fill="none" stroke-width="1" stroke-opacity="0.15" stroke="#000000" transform="translate(560,250)"/></g><g><path cs="100,100" d="M560.5,119.5 L555.5,119.5" fill="none" stroke-width="1" stroke-opacity="0.15" stroke="#000000"/><path cs="100,100" d="M0.5,-130.5 L113.5,-64.5 L113.5,66.5 L0.5,131.5 L-112.5,66.5 L-112.5,-64.5 L0.5,-130.5" fill="none" stroke-width="1" stroke-opacity="0.15" stroke="#000000" transform="translate(560,250)"/></g><g><path cs="100,100" d="M560.5,75.5 L555.5,75.5" fill="none" stroke-width="1" stroke-opacity="0.15" stroke="#000000"/><path cs="100,100" d="M0.5,-174.5 L152.5,-86.5 L152.5,88.5 L0.5,175.5 L-151.5,88.5 L-151.5,-86.5 L0.5,-174.5" fill="none" stroke-width="1" stroke-opacity="0.15" stroke="#000000" transform="translate(560,250)"/></g></g></g><g/><g/><g/><g/><g><g transform="translate(560,250)" opacity="1" visibility="visible"><g/><g/><g><path cs="100,100" d="M0.5,-156.5 L110.5,-62.5 L121.5,70.5 L0.5,118.5 L-74.5,44.5 L-90.5,-51.5 L0.5,-156.5 M0,0 L0,0" fill="none" stroke-width="1" stroke-opacity="1" stroke="#FF6600"/></g></g></g><g/><g><g visibility="visible"><path cs="100,100" d="M560.5,250.5 L560.5,75.5" fill="none" stroke-width="1" stroke-opacity="0.15" stroke="#000000"/><text y="6" fill="#000000" font-family="Verdana" font-size="11" opacity="1" text-anchor="middle" transform="translate(560,50)"><tspan y="6" x="0" style="font-size: 11px;">Development Skills</tspan></text><path cs="100,100" d="M560.5,250.5 L712.5,163.5" fill="none" stroke-width="1" stroke-opacity="0.15" stroke="#000000"/><text y="6" fill="#000000" font-family="Verdana" font-size="11" opacity="1" text-anchor="start" transform="translate(734,153)"><tspan y="6" x="0" style="font-size: 11px;">Design Skills</tspan></text><path cs="100,100" d="M560.5,250.5 L712.5,338.5" fill="none" stroke-width="1" stroke-opacity="0.15" stroke="#000000"/><text y="6" fill="#000000" font-family="Verdana" font-size="11" opacity="1" text-anchor="start" transform="translate(734,348)"><tspan y="6" x="0" style="font-size: 11px;">Problem Solving</tspan></text><path cs="100,100" d="M560.5,250.5 L560.5,425.5" fill="none" stroke-width="1" stroke-opacity="0.15" stroke="#000000"/><text y="6" fill="#000000" font-family="Verdana" font-size="11" opacity="1" text-anchor="middle" transform="translate(560,450)"><tspan y="6" x="0" style="font-size: 11px;">Liquor Capacity</tspan></text><path cs="100,100" d="M560.5,250.5 L408.5,338.5" fill="none" stroke-width="1" stroke-opacity="0.15" stroke="#000000"/><text y="6" fill="#000000" font-family="Verdana" font-size="11" opacity="1" text-anchor="end" transform="translate(386,348)"><tspan y="6" x="0" style="font-size: 11px;">Early Bird</tspan></text><path cs="100,100" d="M560.5,250.5 L408.5,163.5" fill="none" stroke-width="1" stroke-opacity="0.15" stroke="#000000"/><text y="6" fill="#000000" font-family="Verdana" font-size="11" opacity="1" text-anchor="end" transform="translate(386,153)"><tspan y="6" x="0" style="font-size: 11px;">Gaming Skill</tspan></text></g></g><g/><g/><g><g transform="translate(560,250)" opacity="1" visibility="visible"><circle r="4" cx="0" cy="0" fill="#FF6600" stroke="#FF6600" fill-opacity="1" stroke-width="2" stroke-opacity="0" transform="translate(0,-157)"/><circle r="4" cx="0" cy="0" fill="#FF6600" stroke="#FF6600" fill-opacity="1" stroke-width="2" stroke-opacity="0" transform="translate(110,-63)"/><circle r="4" cx="0" cy="0" fill="#FF6600" stroke="#FF6600" fill-opacity="1" stroke-width="2" stroke-opacity="0" transform="translate(121,70)"/><circle r="4" cx="0" cy="0" fill="#FF6600" stroke="#FF6600" fill-opacity="1" stroke-width="2" stroke-opacity="0" transform="translate(0,118)"/><circle r="4" cx="0" cy="0" fill="#FF6600" stroke="#FF6600" fill-opacity="1" stroke-width="2" stroke-opacity="0" transform="translate(-75,44)"/><circle r="4" cx="0" cy="0" fill="#FF6600" stroke="#FF6600" fill-opacity="1" stroke-width="2" stroke-opacity="0" transform="translate(-91,-52)"/></g></g><g><g visibility="visible"><text y="6" fill="#000000" font-family="Verdana" font-size="11" opacity="1" text-anchor="end" transform="translate(552,250)"><tspan y="6" x="0" style="font-size: 11px;">0</tspan></text><text y="6" fill="#000000" font-family="Verdana" font-size="11" opacity="1" text-anchor="end" transform="translate(552,206)"><tspan y="6" x="0" style="font-size: 11px;">50</tspan></text><text y="6" fill="#000000" font-family="Verdana" font-size="11" opacity="1" text-anchor="end" transform="translate(552,163)"><tspan y="6" x="0" style="font-size: 11px;">100</tspan></text><text y="6" fill="#000000" font-family="Verdana" font-size="11" opacity="1" text-anchor="end" transform="translate(552,119)"><tspan y="6" x="0" style="font-size: 11px;">150</tspan></text><text y="6" fill="#000000" font-family="Verdana" font-size="11" opacity="1" text-anchor="end" transform="translate(552,75)"><tspan y="6" x="0" style="font-size: 11px;">200</tspan></text></g></g><g><g/></g><g/><g/><g/></svg></g></svg>