<svg xmlns="http://www.w3.org/2000/svg" xmlns:xlink="http://www.w3.org/1999/xlink"><style>.style0{position:	 absolute;width:	 1120px;height:	 500px;left:	 0.5px;}.style1{stroke:	#000000;fill:	#FFFFFF;stroke-opacity:	0;fill-opacity:	0;}.style2{stroke:	#000000;stroke-opacity:	0.15;fill:	none;}.style3{}.style4{stroke:	#FF6600;fill:	none;}.style5{font-size:	11;font-family:	Verdana;text-anchor:	middle;fill:	#000000;}.style6{font-size:	 11px;}.style7{font-size:	11;font-family:	Verdana;text-anchor:	start;fill:	#000000;}.style8{font-size:	11;font-family:	Verdana;text-anchor:	end;fill:	#000000;}.style9{stroke:	#FF6600;stroke-width:	2;fill:	#FF6600;stroke-opacity:	0;}</style><g transform="translate(0,0)"><svg xmlns="http://www.w3.org/2000/svg" xmlns:xlink="http://www.w3.org/1999/xlink" version="1.1" class="style0"><desc>JavaScript chart by amCharts 3.11.2</desc><g><path cs="100,100" d="M0.5 0.5 L1119.5 0.5 L1119.5 499.5 L0.5 499.5 Z" class="style1"/></g><g><g visibility="visible"><g><path cs="100,100" d="M560.5 250.5 L555.5 250.5" class="style2"/><path cs="100,100" d="M560.5 250.5 L560.5 250.5 L560.5 250.5 L560.5 250.5 L560.5 250.5 L560.5 250.5 L560.5 250.5 " class="style2"/></g><g><path cs="100,100" d="M560.5 206.5 L555.5 206.5" class="style2"/><path cs="100,100" d="M560.5 206.5 L598.5 228.5 L598.5 272.5 L560.5 294.5 L522.5 272.5 L522.5 228.5 L560.5 206.5 " class="style2"/></g><g><path cs="100,100" d="M560.5 163.5 L555.5 163.5" class="style2"/><path cs="100,100" d="M560.5 163.5 L635.5 207.5 L635.5 294.5 L560.5 337.5 L485.5 294.5 L485.5 207.5 L560.5 163.5 " class="style2"/></g><g><path cs="100,100" d="M560.5 119.5 L555.5 119.5" class="style2"/><path cs="100,100" d="M560.5 119.5 L673.5 185.5 L673.5 316.5 L560.5 381.5 L447.5 316.5 L447.5 185.5 L560.5 119.5 " class="style2"/></g><g><path cs="100,100" d="M560.5 75.5 L555.5 75.5" class="style2"/><path cs="100,100" d="M560.5 75.5 L712.5 163.5 L712.5 338.5 L560.5 425.5 L408.5 338.5 L408.5 163.5 L560.5 75.5 " class="style2"/></g></g></g><g/><g/><g/><g/><g><g transform="translate(560,250)" visibility="visible" class="style3"><g/><g/><g><path cs="100,100" d="M0.5 -156.5 L110.5 -62.5 L121.5 70.5 L0.5 118.5 L-74.5 44.5 L-90.5 -51.5 L0.5 -156.5 M0 0 L0 0" class="style4"/></g></g></g><g/><g><g visibility="visible"><path cs="100,100" d="M560.5 250.5 L560.5 75.5" class="style2"/><text y="6" transform="translate(560,50)" class="style5"><tspan y="6" x="0" class="style6">Development Skills</tspan></text><path cs="100,100" d="M560.5 250.5 L712.5 163.5" class="style2"/><text y="6" transform="translate(734,153)" class="style7"><tspan y="6" x="0" class="style6">Design Skills</tspan></text><path cs="100,100" d="M560.5 250.5 L712.5 338.5" class="style2"/><text y="6" transform="translate(734,348)" class="style7"><tspan y="6" x="0" class="style6">Problem Solving</tspan></text><path cs="100,100" d="M560.5 250.5 L560.5 425.5" class="style2"/><text y="6" transform="translate(560,450)" class="style5"><tspan y="6" x="0" class="style6">Liquor Capacity</tspan></text><path cs="100,100" d="M560.5 250.5 L408.5 338.5" class="style2"/><text y="6" transform="translate(386,348)" class="style8"><tspan y="6" x="0" class="style6">Early Bird</tspan></text><path cs="100,100" d="M560.5 250.5 L408.5 163.5" class="style2"/><text y="6" transform="translate(386,153)" class="style8"><tspan y="6" x="0" class="style6">Gaming Skill</tspan></text></g></g><g/><g/><g><g transform="translate(560,250)" visibility="visible" class="style3"><circle r="4" cx="0" cy="-157" class="style9"/><circle r="4" cx="110" cy="-63" class="style9"/><circle r="4" cx="121" cy="70" class="style9"/><circle r="4" cx="0" cy="118" class="style9"/><circle r="4" cx="-75" cy="44" class="style9"/><circle r="4" cx="-91" cy="-52" class="style9"/></g></g><g><g visibility="visible"><text y="6" transform="translate(552,250)" class="style8"><tspan y="6" x="0" class="style6">0</tspan></text><text y="6" transform="translate(552,206)" class="style8"><tspan y="6" x="0" class="style6">50</tspan></text><text y="6" transform="translate(552,163)" class="style8"><tspan y="6" x="0" class="style6">100</tspan></text><text y="6" transform="translate(552,119)" class="style8"><tspan y="6" x="0" class="style6">150</tspan></text><text y="6" transform="translate(552,75)" class="style8"><tspan y="6" x="0" class="style6">200</tspan></text></g></g><g><g/></g><g/><g/><g/></svg></g></svg>